<svg xmlns="http://www.w3.org/2000/svg" width="1200" height="487" viewBox="0 0 1200 487" role="img" aria-label="Current full-stack learning, planned .NET specialization, long-term DevOps and Cloud"><title>Current full-stack learning, planned .NET specialization, long-term DevOps and Cloud</title><defs><pattern id="dots" width="24" height="24" patternUnits="userSpaceOnUse"><circle cx="1" cy="1" r="1" fill="#608090" opacity=".14"/></pattern><linearGradient id="fade"><stop stop-color="#16323c"/><stop offset="1" stop-color="#0a1018"/></linearGradient></defs><style>.pulse{animation:pulse 4s ease-in-out infinite}.flow{stroke-dasharray:8 40;animation:flow 9s linear infinite}.cursor{animation:pulse 2s steps(2,end) infinite}@keyframes pulse{50%{opacity:.3}}@keyframes flow{to{stroke-dashoffset:-192}}@media(prefers-reduced-motion:reduce){.pulse,.flow,.cursor{animation:none}}</style><rect width="1200" height="487" rx="20" fill="#0a1018"/><rect x="1" y="1" width="1198" height="485" rx="20" stroke="#283b49" fill="none"/><g font-family="Segoe UI,Arial,sans-serif"><text x="42" y="43" fill="#e9bb79" font-size="14" font-weight="650" letter-spacing="1.6">02 / DEVELOPMENT DIRECTION</text><text x="42" y="92" fill="#edf3f4" font-size="36" font-weight="700" >Build the software. Understand its delivery.</text><text x="42" y="131" fill="#9eafb9" font-size="20" font-weight="400" >A deliberate progression from engineering foundations to operational understanding.</text><path d="M60 232L1120 232" stroke="#283b49" fill="none" stroke-width="2"/><rect x="42" y="171" width="258" height="124" rx="12" fill="#101c28" stroke="#283b49"/><text x="59" y="200" fill="#6ee7c7" font-size="12" font-weight="650" letter-spacing="1">FOUNDATION</text><text x="59" y="238" fill="#edf3f4" font-size="23" font-weight="650" >Software Engineering</text><text x="59" y="272" fill="#9eafb9" font-size="17" font-weight="400" >Analysis &amp; design</text><rect x="328" y="171" width="258" height="124" rx="12" fill="#101c28" stroke="#283b49"/><text x="345" y="200" fill="#6ee7c7" font-size="12" font-weight="650" letter-spacing="1">CURRENT LEARNING</text><text x="345" y="238" fill="#edf3f4" font-size="23" font-weight="650" >Full-Stack Web</text><text x="345" y="272" fill="#9eafb9" font-size="17" font-weight="400" >Application development</text><rect x="614" y="171" width="258" height="124" rx="12" fill="#101c28" stroke="#283b49"/><text x="631" y="200" fill="#e9bb79" font-size="12" font-weight="650" letter-spacing="1">PLANNED</text><text x="631" y="238" fill="#edf3f4" font-size="23" font-weight="650" >Full-Stack .NET</text><text x="631" y="272" fill="#9eafb9" font-size="17" font-weight="400" >Backend specialization</text><rect x="900" y="171" width="258" height="124" rx="12" fill="#101c28" stroke="#283b49"/><text x="917" y="200" fill="#e9bb79" font-size="12" font-weight="650" letter-spacing="1">LONG-TERM</text><text x="917" y="238" fill="#edf3f4" font-size="23" font-weight="650" >DevOps &amp; Cloud</text><text x="917" y="272" fill="#9eafb9" font-size="17" font-weight="400" >Delivery &amp; operations</text><text x="44" y="340" fill="#e9bb79" font-size="13" font-weight="600" letter-spacing="1.2">FUTURE PRACTICES I WANT TO DEVELOP</text><path d="M65 390L1132 390" stroke="#283b49" fill="none" /><path d="M65 390L1132 390" stroke="#e9bb79" fill="none" class="flow" stroke-width="2"/><rect x="45" y="369" width="201" height="44" rx="22" fill="#15202a" stroke="#283b49"/><text x="145" y="397" fill="#edf3f4" font-size="15" font-weight="600" text-anchor="middle">TEST</text><rect x="272" y="369" width="201" height="44" rx="22" fill="#15202a" stroke="#283b49"/><text x="372" y="397" fill="#edf3f4" font-size="15" font-weight="600" text-anchor="middle">AUTOMATE</text><rect x="499" y="369" width="201" height="44" rx="22" fill="#15202a" stroke="#283b49"/><text x="599" y="397" fill="#edf3f4" font-size="15" font-weight="600" text-anchor="middle">DEPLOY</text><rect x="726" y="369" width="201" height="44" rx="22" fill="#15202a" stroke="#283b49"/><text x="826" y="397" fill="#edf3f4" font-size="15" font-weight="600" text-anchor="middle">OBSERVE</text><rect x="953" y="369" width="201" height="44" rx="22" fill="#15202a" stroke="#283b49"/><text x="1053" y="397" fill="#edf3f4" font-size="15" font-weight="600" text-anchor="middle">IMPROVE</text><text x="42" y="455" fill="#9eafb9" font-size="18" font-weight="400" >CI/CD · Containers · Cloud deployment · Monitoring · Application maintenance</text></g></svg>